<svg width="1500" height="1500" viewBox="0 0 1500 1500" fill="none" xmlns="http://www.w3.org/2000/svg">
<rect width="1500" height="1500" fill="#1E1E1E"/>
<rect width="1500" height="1500" fill="white"/>
<g clip-path="url(#clip0_4_122)">
<path d="M821.816 794.895C823.155 795.863 821.066 797.754 820.374 798.613C813.066 805.656 802.296 807.926 792.433 808.156C762.433 807.215 770.273 775.926 755.105 775.524C753.175 775.785 754.194 774.363 755.374 773.793C759.206 771.383 764.316 770.125 768.554 772.164C775.144 775.645 780.316 782.035 782.175 789.254C781.874 786.965 781.194 784.723 780.573 782.535C778.694 774.684 771.253 768.043 763.073 768.246C762.343 768.285 761.636 768.383 760.976 768.524C760.886 768.613 760.745 768.645 760.612 768.606C760.136 768.695 760.015 768.024 760.374 767.836C761.362 764.465 764.753 761.906 768.066 761.043C775.046 760.406 779.245 766.633 782.862 771.625C787.534 777.625 792.253 783.625 797.413 789.215C800.456 792.145 803.456 795.563 807.663 796.543C811.523 797.235 815.773 797.274 819.495 795.985C820.335 795.766 820.933 794.824 821.816 794.895Z" fill="#1B4332"/>
<path d="M893.234 700.856C897.054 703.746 897.675 708.953 897.566 713.434C897.753 721.813 893.835 730.184 887.144 735.254C880.316 740.363 871.566 740.863 863.343 740.996C860.085 741.285 856.745 741.453 853.546 742.235C853.405 742.235 853.265 742.156 853.206 742.035C853.136 742.016 853.073 741.985 853.023 741.914C852.925 741.793 852.862 741.633 852.913 741.465C853.894 739.836 855.593 738.746 857.046 737.535C862.612 733.254 870.144 733.445 876.362 730.813C872.714 731.824 868.964 730.664 865.273 730.645C858.265 730.555 852.066 734.824 846.816 739.035C846.694 739.133 846.566 739.274 846.425 739.375C846.394 739.543 846.323 739.684 846.155 739.785C845.823 739.914 845.515 739.574 845.612 739.246C845.816 732.746 849.343 726.363 854.573 722.563C859.124 719.973 864.534 719.766 869.644 719.836C875.894 719.824 883.335 720.844 888.226 716.196C890.405 714.516 891.343 711.824 892.112 709.266C892.944 706.524 893.155 703.676 891.753 701.125C891.636 700.215 892.823 700.406 893.234 700.856Z" fill="#1B4332"/>
<path d="M948.093 830.094C948.476 830.574 949.663 830.746 949.394 831.473C949.273 831.664 949.023 831.703 948.835 831.594C948.823 831.586 948.823 831.574 948.816 831.574C948.753 831.766 948.573 831.926 948.316 831.836C935.214 829.094 915.886 821.895 907.386 811.223C903.855 806.016 901.796 799.863 900.593 793.723C899.593 787.746 899.855 781.426 898.163 775.613C897.644 774.473 896.925 773.516 895.944 772.766C895.855 772.696 895.816 772.563 895.816 772.446C895.843 772.344 895.894 772.254 895.944 772.203C895.862 771.926 896.085 771.543 896.444 771.676C905.905 776.156 911.023 786.094 916.093 794.746C917.984 798.063 919.714 801.473 921.745 804.715C917.683 794.586 917.206 782.504 907.663 775.735C907.523 775.664 907.456 775.555 907.456 775.434C907.226 775.363 907.093 775.203 907.234 774.856C907.694 774.453 908.495 774.793 909.054 774.813C925.593 778.156 927.253 793.586 933.175 806.504C937.284 814.793 941.144 823.774 948.093 830.094Z" fill="#1B4332"/>
<path d="M1001.16 731.524C1001.34 734.664 1001.68 738.215 1000.8 741.344C995.296 754.356 984.253 767.586 969.956 770.344C969.933 770.344 969.913 770.356 969.894 770.356C967.663 771.024 965.273 771.184 962.944 771.063C960.444 770.926 957.944 770.254 955.644 769.293C955.476 769.203 955.394 769.016 955.425 768.844C955.394 768.793 955.374 768.723 955.374 768.656C956.726 766.504 959.394 765.274 961.476 763.836C965.316 761.395 969.374 759.434 973.675 757.973C975.323 757.414 977.015 756.965 978.734 756.676C974.015 755.613 969.194 756.453 964.683 758.313C959.112 760.235 954.304 764.094 950.413 768.196C949.323 767.766 949.843 765.914 949.905 764.996C951.073 759.125 954.816 753.824 960.046 750.875C971.566 743.524 988.624 747.793 997.694 736.407C998.773 735.004 999.925 733.563 1000.32 731.856C1000.32 731.586 1000.43 731.203 1000.78 731.246C1000.86 731.305 1000.93 731.375 1000.98 731.453C1001.02 731.465 1001.09 731.496 1001.16 731.524ZM956.284 768.684C956.273 768.676 956.284 768.656 956.284 768.656C956.273 768.656 956.265 768.656 956.265 768.676C956.265 768.676 956.273 768.684 956.284 768.684Z" fill="#1B4332"/>
<path d="M1111.53 757.793C1116.66 767.696 1119.16 780.176 1115.02 790.785C1115.02 790.793 1115.01 790.813 1115 790.824C1113.69 794.785 1111.8 798.684 1108.82 801.594C1105.78 804.305 1101.98 805.946 1098.03 806.824C1098.02 806.824 1098.02 806.824 1098.02 806.824C1094.96 807.645 1091.86 807.973 1089.27 807.766C1073.27 806.844 1058.27 787.805 1069.35 773.383C1074.51 766.426 1084.55 762.004 1092.67 766.375C1098.71 770.676 1102 780.336 1095.19 785.516C1090.76 789.184 1083.09 787.254 1081.12 781.774C1080.46 779.676 1079.96 776.914 1081.49 775.086C1085.1 771.946 1091.48 773.535 1093.02 778.035C1094.05 774.953 1092.56 771.356 1089.5 770.043C1086.01 768.383 1081.96 769.266 1078.61 770.875C1074.24 773.094 1072.5 778.184 1071.46 782.684C1070.18 788.785 1074.14 794.485 1078.35 798.485C1084.23 803.426 1092.86 804.344 1099.62 800.844C1109.03 796.414 1112.8 785.223 1112.64 775.406C1112.75 770.656 1112.32 765.766 1110.44 761.395C1110.12 760.715 1109.8 760.043 1109.44 759.383C1109.41 759.356 1109.4 759.313 1109.39 759.285C1109.39 759.274 1109.39 759.266 1109.37 759.254C1103.78 748.746 1093.75 740.414 1084.48 733.356C1077.43 728.363 1069.6 724.594 1061.69 721.196C1055.17 718.375 1048.53 715.613 1041.46 714.586C1039.15 714.215 1036.86 713.856 1034.57 713.473C1008.5 709.907 982.105 717.086 958.015 726.676C940.585 733.594 923.765 742.344 908.726 753.555C905.163 756.274 901.644 759.133 898.105 761.863C909.894 765.684 921.862 768.844 933.894 771.836C956.124 778.375 979.495 781.645 1002.57 778.406C1027.43 775.746 1055.56 767.285 1061 739.344C1061.23 738.164 1061.39 737.004 1061.48 735.836C1061.48 735.836 1061.48 735.824 1061.49 735.824C1061.52 735.793 1061.57 735.766 1061.61 735.735C1061.64 735.715 1061.65 735.703 1061.68 735.684C1061.68 735.676 1061.69 735.676 1061.69 735.676C1061.69 735.676 1061.69 735.664 1061.71 735.664C1061.81 735.656 1061.92 735.645 1062.03 735.633C1062.1 735.625 1062.17 735.625 1062.24 735.645H1062.25C1062.26 735.645 1062.27 735.645 1062.27 735.645C1062.3 735.656 1062.31 735.656 1062.32 735.664C1062.35 735.676 1062.37 735.684 1062.39 735.696C1062.4 735.703 1062.41 735.703 1062.41 735.703C1062.89 741.074 1063.09 746.555 1061.57 751.746C1058.48 759.406 1054.02 767.246 1047.32 772.293C1031.81 781.996 1013.05 785.633 994.886 785.645C994.073 785.645 993.273 785.625 992.464 785.613C983.144 785.504 973.733 785.356 964.386 784.664C972.183 787.035 979.644 790.613 986.624 794.813C1002.11 803.746 1015.43 817.016 1021.24 834.223C1023.03 839.184 1024.85 844.324 1025.14 849.625C1025.33 850.606 1025.43 851.586 1025.39 852.613C1025.35 852.805 1025.18 852.953 1024.98 852.953C1024.96 852.914 1024.96 852.883 1024.96 852.844C1024.86 852.906 1024.75 852.934 1024.66 852.914C1024.59 851.996 1024.49 851.063 1024.39 850.145C1019.74 831.086 1002.61 809.086 984.976 799.973C989.835 805.543 992.714 813.293 992.003 820.664C990.913 830.856 982.245 839.746 971.655 839.133C966.476 839.063 960.183 837.793 957.605 832.774C956.905 830.914 956.253 828.836 956.355 826.844C956.894 823.774 959.046 820.586 962.093 819.625C965.733 818.516 969.675 819.684 972.546 822.063C972.554 822.063 972.565 822.074 972.573 822.086C972.605 822.106 972.636 822.113 972.663 822.133C972.855 822.246 972.894 822.516 972.796 822.696C972.655 822.914 972.386 822.926 972.183 822.805C970.956 822.133 969.523 821.703 968.163 821.946C963.843 822.563 962.034 826.824 965.546 829.746C968.964 832.223 973.773 832.594 977.804 831.684C980.163 831.043 981.733 829.086 983.124 827.215C988.534 820.383 986.944 810.543 982.304 803.723C979.874 800.004 976.183 797.434 972.503 795.106C966.124 790.875 959.296 787.344 952.105 784.735C950.315 784.055 948.386 783.254 946.534 782.715C946.483 782.645 946.444 782.574 946.413 782.516C942.413 781.824 938.444 780.965 934.515 779.895C919.933 775.813 905.483 771.223 891.073 766.524C875.675 778.293 856.835 791.793 840.706 791.094C825.944 791.004 810.835 785.754 801.745 773.633C799.206 770.516 796.694 767.363 794.815 763.805C793.714 762.293 792.862 760.594 792.065 758.946C792.023 758.613 792.374 758.426 792.644 758.535C792.874 758.473 793.124 758.633 793.136 758.895C793.835 760.344 794.565 761.746 795.335 763.106C798.214 767.074 802.214 770.176 806.163 773.094C816.554 780.965 829.554 786.133 842.726 785.414C848.644 785.235 854.034 782.524 859.245 779.985C864.495 777.305 869.612 774.414 874.433 771.074C877.573 768.856 880.585 766.453 883.605 764.086C881.796 763.496 879.995 762.906 878.194 762.313C857.144 754.356 835.894 746.496 813.815 741.953C807.694 740.543 801.835 740.254 796.124 740.785C803.085 748.156 810.335 755.223 819.054 760.496C825.273 764.156 831.323 768.606 838.444 770.246C848.726 772.543 847.433 764.895 841.706 759.645C835.444 753.746 826.894 750.543 818.284 751.676C818.284 751.676 818.273 751.676 818.265 751.676C818.265 751.676 818.265 751.676 818.253 751.676C818.093 751.715 817.944 751.664 817.835 751.524C817.784 751.383 817.804 751.266 817.874 751.164C817.874 750.985 818.015 750.824 818.194 750.774C819.065 750.535 819.913 750.336 820.815 750.176C832.085 748.504 844.894 753.504 850.995 763.324C854.206 770.196 849.456 775.453 842.683 775.453C842.296 775.453 841.905 775.434 841.503 775.406C826.565 774.613 814.226 764.383 803.534 754.844C798.636 750.625 793.796 746.324 789.144 741.844C780.304 743.657 771.753 747.176 763.065 751.184C762.983 751.203 762.905 751.235 762.823 751.285C762.112 751.856 761.413 752.453 760.714 753.063C760.644 753.196 760.534 753.246 760.413 753.246C760.136 753.246 759.835 752.946 760.023 752.656C760.456 752.094 761.046 751.656 761.585 751.203C761.605 751.184 761.636 751.176 761.655 751.156C761.663 751.035 761.753 750.914 761.874 750.863C761.983 750.813 762.093 750.754 762.206 750.703C769.112 745.164 777.046 740.836 785.503 738.254C784.554 737.285 783.605 736.305 782.675 735.313C779.655 736.766 776.105 737.594 772.726 737.594C766.815 737.594 761.355 735.043 759.956 728.676C759.843 722.996 766.585 719.953 771.573 720.856C777.253 721.723 781.593 725.426 785.456 729.414C788.694 727.465 791.694 725.145 794.612 722.766C795.124 722.813 795.183 723.043 795.003 723.356C795.144 723.465 795.226 723.664 795.093 723.864C792.894 726.723 790.304 729.246 787.714 731.766C789.226 733.375 790.726 734.996 792.233 736.614C795.323 736.035 798.476 735.695 801.644 735.625C812.034 735.504 822.144 738.266 832.206 740.485C852.015 744.906 870.773 752.906 890.023 759.176C891.605 758.024 893.206 756.926 894.855 755.875C895.585 755.543 896.374 754.375 897.034 754.524C900.343 751.946 903.683 749.383 907.085 746.985C920.983 737.926 935.733 729.895 951.105 723.586C951.413 723.485 951.714 723.383 952.023 723.274C956.753 720.965 961.765 719.223 966.773 717.594C974.675 715.024 982.765 712.664 990.976 711.176C993.925 710.524 996.956 710.176 999.956 709.863C1003.86 709.453 1007.8 709.184 1011.73 709.176C1021.46 708.344 1031.25 708.446 1041 709.824C1068.53 715.606 1097.14 733.203 1111.53 757.793ZM773.073 733.813C775.405 733.684 777.683 733.215 779.804 732.254C777.046 729.586 774.163 726.344 770.233 725.657C770.105 725.645 769.976 725.645 769.843 725.645C766.233 725.645 763.233 728.875 766.585 731.946C768.323 733.555 770.823 733.715 773.073 733.813Z" fill="#1B4332"/>
<path d="M1060.27 801.934C1060.68 802.094 1060.53 802.543 1060.36 802.895C1060.93 809.285 1054.39 813.735 1048.32 813.016C1034.84 811.953 1030.18 796.414 1019 791.285C1018.21 790.985 1017.36 790.774 1016.5 790.785C1016.3 790.785 1016.14 790.606 1016.12 790.414C1015.91 790.305 1015.75 790.024 1015.96 789.785C1017.34 788.985 1019.23 789.535 1020.8 789.414C1024.5 789.656 1028.41 790.156 1031.73 791.906C1033.75 792.895 1035.39 794.344 1036.92 795.934C1038.9 797.524 1040.73 799.426 1042.66 800.965C1037.46 792.543 1027.82 785.215 1017.48 787.785C1017.05 788.004 1016.76 787.504 1016.93 787.215C1016.84 786.985 1016.93 786.676 1017.27 786.594C1020.96 784.735 1025.34 784.176 1029.41 784.696C1040.03 786.274 1045.96 796.274 1053.03 803.246C1054.55 804.953 1056.71 805.446 1058.52 803.906C1059 803.504 1059.39 803.043 1059.66 802.504C1059.73 802.203 1059.87 801.813 1060.27 801.934ZM1044.62 803.824C1043.66 803.063 1042.75 802.235 1041.84 801.375C1042.71 802.266 1043.62 803.106 1044.62 803.824Z" fill="#1B4332"/>
<path d="M1272.98 764.324C1277.48 776.805 1275.64 787.344 1266.43 796.996C1258.73 805.313 1247.21 810.344 1235.86 810.145C1223.76 809.586 1212.03 804.836 1202.09 797.836C1197.82 795.246 1194.01 791.824 1190.73 788.125C1185.89 783.383 1181.16 778.496 1176.59 773.516C1169.26 766.016 1162.07 758.164 1152.94 752.844C1148.41 749.774 1143.08 747.516 1137.52 747.563C1123.68 746.426 1120.96 764.524 1126.1 774.164C1129.37 782.563 1140.11 785.453 1144.41 776.223C1144.58 775.934 1144.71 775.613 1144.77 775.293C1141.99 775.406 1139.23 774.086 1137.23 772.195C1130.6 764.324 1139.4 755.445 1148.12 759.406C1149.14 759.934 1150.03 760.613 1150.82 761.414C1150.83 761.426 1150.84 761.434 1150.85 761.445C1153.76 764.106 1155.46 768.246 1155.64 772.106C1155.64 772.434 1155.64 772.766 1155.6 773.086C1155.61 773.156 1155.62 773.235 1155.62 773.313C1154.65 781.473 1146.12 788.246 1138.07 788.426C1126.55 788.703 1120.86 776.465 1119.82 766.563C1118.55 756.934 1121.46 745.836 1131.82 742.926C1132.49 742.754 1133.17 742.613 1133.85 742.516C1140.98 740.836 1149.07 742.633 1155.5 745.906C1163.36 749.223 1170.23 754.555 1176.23 760.586C1183.28 766.953 1190.08 773.594 1196.71 780.406C1205.18 789.313 1214.71 798.184 1227.09 800.824C1238.34 803.824 1248.96 803.176 1257.37 794.356C1267.16 784.985 1269.94 768.785 1262.75 757.106C1252.78 741.844 1231.37 730.086 1218.27 748.645C1211.57 757.395 1219.55 770.676 1229.8 771.453C1232.68 771.985 1235.59 771.363 1238.1 769.926C1238.51 769.746 1238.89 769.445 1239.25 769.176C1239.32 769.086 1239.37 768.985 1239.43 768.895C1239.28 768.524 1239.77 768.184 1240.07 768.453C1240.14 768.504 1240.19 768.574 1240.21 768.656C1240.23 768.645 1240.23 768.645 1240.23 768.645C1240.52 768.723 1240.66 769.074 1240.44 769.305C1240.25 769.465 1240.07 769.613 1239.85 769.766C1238.66 771.793 1236.37 773.004 1234.25 773.895C1222.23 778.785 1207.65 766.516 1209.48 753.965C1210.33 744.574 1218.51 738.473 1226.25 734.344C1236.32 730.836 1248.07 734.723 1256.59 740.516C1264.57 746.285 1269.68 755.274 1272.98 764.324Z" fill="#1B4332"/>
<path d="M1200.39 731.246C1203.44 737.734 1206.27 746.895 1204.05 751.844C1204.05 751.863 1204.05 751.883 1204.02 751.906C1204.02 751.945 1204 751.965 1204 752.004C1203.91 752.133 1203.77 752.203 1203.64 752.203C1203.48 752.223 1203.34 752.184 1203.25 752.055C1199.91 750.266 1197.64 747.035 1195.41 744.055C1191.61 738.793 1187.77 733.563 1184.3 728.055C1181.23 722.586 1177.21 717.746 1172.11 714.055C1178.12 719.356 1182.34 726.356 1185.77 733.524C1189.46 741.133 1191.84 750.235 1199.14 755.305C1199.6 755.594 1200.07 755.836 1200.55 755.996C1200.73 756.043 1200.93 756.055 1201.05 756.215C1201.19 756.184 1201.35 756.133 1201.52 756.094C1202 756.774 1200.89 757.024 1200.39 757.133C1197.09 757.906 1193.6 758.074 1190.27 757.395C1167.64 753.094 1165.44 725.946 1153.57 710.203C1148.77 702.985 1140.87 694.625 1131.39 696.324C1130.84 696.465 1130.23 696.633 1129.68 696.856C1129.62 696.914 1129.57 696.973 1129.52 697.035C1129.27 697.313 1128.84 697.094 1128.82 696.793C1128.73 696.606 1128.8 696.344 1129 696.254C1129.07 696.234 1129.14 696.203 1129.21 696.184C1129.48 695.883 1129.8 695.625 1130.1 695.356C1132.84 692.965 1136.25 691.524 1139.8 690.883C1164.64 687.305 1184.62 698.774 1196 720.793C1197.55 724.234 1199.07 727.703 1200.39 731.246Z" fill="#1B4332"/>
<path d="M1041.96 646.895C1058.66 656.156 1053.05 680.313 1042.11 692.125C1037.51 697.016 1031.67 700.914 1025.01 702.203C1020.75 703.196 1016.52 704.524 1012.09 704.223C1010.96 704.156 1009.89 703.774 1008.8 703.465C1008.66 703.406 1008.57 703.305 1008.55 703.176C1008.27 703.016 1008.3 702.543 1008.64 702.434C1013.39 699.344 1018.34 696.555 1023.25 693.723C1028.86 690.446 1034.67 686.836 1037.84 680.985C1039.14 678.676 1040.81 676.266 1041.3 673.633C1036.32 683.785 1024.6 687.824 1015.12 692.813C1011 695.086 1006.14 696.774 1003.27 700.695C1002.82 701.074 1002.68 702.465 1001.94 701.934C1001.82 701.813 1001.81 701.684 1001.86 701.543C997.573 689.836 1007.28 678.004 1018.12 674.375C1023.58 672.055 1030.32 671.156 1034.08 666.125C1037.3 661.543 1038.05 655.016 1034.32 650.504C1032.98 649.094 1030.92 648.195 1028.98 648.086C1028.89 648.113 1028.78 648.145 1028.67 648.176C1028.61 648.125 1028.57 648.063 1028.55 648.004C1028.3 647.813 1028.33 647.305 1028.74 647.266C1028.85 647.274 1028.96 647.274 1029.06 647.285C1029.1 647.274 1029.14 647.266 1029.17 647.254C1033.23 645.805 1037.84 645.516 1041.96 646.895Z" fill="#1B4332"/>
<path d="M679.843 795.985C683.554 797.274 687.804 797.235 691.663 796.543C695.886 795.563 698.886 792.145 701.913 789.215C707.073 783.625 711.796 777.625 716.464 771.625C720.093 766.633 724.284 760.406 731.273 761.043C734.585 761.906 737.976 764.465 738.964 767.836C739.316 768.024 739.206 768.695 738.726 768.606C738.585 768.645 738.456 768.613 738.355 768.524C737.694 768.383 736.984 768.285 736.253 768.246C728.073 768.043 720.636 774.684 718.765 782.535C718.136 784.723 717.456 786.965 717.155 789.254C719.015 782.035 724.183 775.645 730.773 772.164C735.023 770.125 740.124 771.383 743.956 773.793C745.136 774.363 746.155 775.785 744.226 775.524C729.054 775.926 736.894 807.215 706.894 808.156C697.034 807.926 686.265 805.656 678.956 798.613C678.273 797.754 676.175 795.863 677.523 794.895C678.394 794.824 678.995 795.766 679.843 795.985Z" fill="#1B4332"/>
<path d="M607.573 701.125C606.183 703.676 606.386 706.524 607.226 709.266C607.984 711.824 608.925 714.516 611.105 716.196C616.003 720.844 623.433 719.824 629.683 719.836C634.796 719.766 640.206 719.973 644.753 722.563C649.995 726.363 653.515 732.746 653.714 739.246C653.816 739.574 653.503 739.914 653.175 739.785C653.003 739.684 652.933 739.543 652.905 739.375C652.765 739.274 652.636 739.133 652.515 739.035C647.265 734.824 641.066 730.555 634.054 730.645C630.374 730.664 626.613 731.824 622.964 730.813C629.183 733.445 636.714 733.254 642.284 737.535C643.734 738.746 645.445 739.836 646.413 741.465C646.464 741.633 646.405 741.793 646.316 741.914C646.253 741.985 646.195 742.016 646.124 742.035C646.066 742.156 645.925 742.235 645.784 742.235C642.593 741.453 639.253 741.285 635.984 740.996C627.765 740.863 619.015 740.363 612.183 735.254C605.495 730.184 601.573 721.813 601.765 713.434C601.663 708.953 602.273 703.746 606.093 700.856C606.503 700.406 607.695 700.215 607.573 701.125Z" fill="#1B4332"/>
<path d="M566.155 806.504C572.073 793.586 573.734 778.156 590.273 774.813C590.835 774.793 591.636 774.453 592.093 774.856C592.234 775.203 592.105 775.363 591.874 775.434C591.874 775.555 591.816 775.664 591.675 775.735C582.124 782.504 581.655 794.586 577.593 804.715C579.612 801.473 581.343 798.063 583.234 794.746C588.304 786.094 593.425 776.156 602.886 771.676C603.245 771.543 603.476 771.926 603.386 772.203C603.433 772.254 603.484 772.344 603.523 772.446C603.523 772.563 603.476 772.696 603.386 772.766C602.405 773.516 601.683 774.473 601.163 775.613C599.476 781.426 599.734 787.746 598.734 793.723C597.534 799.863 595.476 806.016 591.944 811.223C583.444 821.895 564.112 829.094 551.015 831.836C550.765 831.926 550.573 831.766 550.515 831.574C550.503 831.574 550.503 831.586 550.495 831.594C550.304 831.703 550.066 831.664 549.933 831.473C549.663 830.746 550.855 830.574 551.234 830.094C558.194 823.774 562.046 814.793 566.155 806.504Z" fill="#1B4332"/>
<path d="M543.046 768.656C543.066 768.656 543.066 768.656 543.073 768.676C543.066 768.676 543.046 768.684 543.046 768.684C543.046 768.676 543.046 768.656 543.046 768.656ZM549.433 764.996C548.253 759.113 544.515 753.824 539.284 750.875C527.765 743.516 510.714 747.793 501.644 736.406C500.566 734.996 499.405 733.563 499.015 731.856C499.015 731.594 498.905 731.203 498.546 731.235C498.464 731.305 498.405 731.364 498.355 731.446C498.304 731.465 498.234 731.496 498.155 731.524C497.984 734.676 497.655 738.223 498.523 741.356C504.034 754.363 515.085 767.574 529.374 770.344H529.425C531.675 771.024 534.054 771.184 536.386 771.055C538.886 770.914 541.386 770.254 543.694 769.285C543.855 769.203 543.933 769.024 543.905 768.844C543.933 768.785 543.944 768.735 543.944 768.656C542.612 766.504 539.933 765.266 537.855 763.836C534.023 761.395 529.964 759.426 525.655 757.973C524.003 757.406 522.316 756.973 520.605 756.664C525.316 755.613 530.136 756.453 534.655 758.313C540.226 760.235 545.034 764.094 548.913 768.203C550.003 767.766 549.484 765.914 549.433 764.996Z" fill="#1B4332"/>
<path d="M729.093 725.657C729.226 725.645 729.355 725.645 729.484 725.645C733.105 725.645 736.085 728.883 732.745 731.934C731.003 733.563 728.503 733.703 726.253 733.805C723.933 733.696 721.644 733.223 719.534 732.254C722.296 729.594 725.163 726.344 729.093 725.657ZM737.745 751.215C737.734 751.184 737.694 751.184 737.683 751.145C737.663 751.035 737.585 750.926 737.456 750.856C737.343 750.813 737.245 750.766 737.112 750.696C730.214 745.164 722.296 740.836 713.816 738.254C714.773 737.293 715.726 736.305 716.655 735.324C719.675 736.754 723.226 737.594 726.612 737.594C732.523 737.594 737.976 735.043 739.374 728.676C739.495 722.996 732.745 719.965 727.753 720.864C722.085 721.735 717.745 725.426 713.862 729.414C710.644 727.465 707.636 725.145 704.714 722.766C704.206 722.813 704.136 723.043 704.335 723.344C704.183 723.465 704.105 723.676 704.234 723.864C706.444 726.723 709.023 729.235 711.605 731.774L707.105 736.614C704.003 736.035 700.862 735.695 697.683 735.625C687.296 735.496 677.194 738.254 667.124 740.485C647.316 744.906 628.566 752.906 609.316 759.164C607.734 758.024 606.112 756.926 604.476 755.875C603.745 755.535 602.956 754.375 602.296 754.524C598.984 751.946 595.644 749.395 592.253 746.985C578.343 737.914 563.585 729.895 548.226 723.594C547.913 723.473 547.612 723.383 547.304 723.266C542.573 720.965 537.566 719.215 532.554 717.586C524.655 715.024 516.566 712.664 508.355 711.184C505.405 710.535 502.362 710.184 499.362 709.856C495.464 709.453 491.523 709.184 487.605 709.184C477.862 708.344 468.085 708.446 458.335 709.824C430.796 715.606 402.183 733.203 387.796 757.793C382.663 767.684 380.163 780.176 384.304 790.774C384.304 790.793 384.304 790.805 384.323 790.824C385.636 794.774 387.523 798.684 390.523 801.606C393.554 804.313 397.343 805.946 401.296 806.813C401.296 806.813 401.296 806.813 401.316 806.813C404.362 807.656 407.464 807.973 410.073 807.766C426.066 806.844 441.054 787.805 429.984 773.383C424.804 766.426 414.784 762.004 406.655 766.364C400.624 770.676 397.335 780.336 404.136 785.516C408.573 789.176 416.245 787.254 418.206 781.774C418.874 779.676 419.374 776.914 417.835 775.094C414.226 771.946 407.855 773.543 406.316 778.035C405.265 774.946 406.765 771.356 409.835 770.043C413.323 768.383 417.386 769.266 420.714 770.864C425.085 773.094 426.823 778.176 427.874 782.676C429.144 788.793 425.194 794.485 420.964 798.496C415.093 803.426 406.476 804.344 399.706 800.844C390.296 796.406 386.534 785.223 386.694 775.414C386.566 770.656 387.003 765.766 388.894 761.395C389.194 760.715 389.534 760.043 389.894 759.375C389.905 759.364 389.925 759.313 389.944 759.285C389.944 759.285 389.944 759.266 389.956 759.246C395.534 748.746 405.593 740.406 414.855 733.356C421.905 728.363 429.726 724.594 437.636 721.203C444.155 718.375 450.804 715.613 457.862 714.586C460.175 714.215 462.464 713.844 464.753 713.473C490.835 709.906 517.226 717.086 541.316 726.676C558.745 733.594 575.573 742.344 590.612 753.555C594.163 756.285 597.694 759.133 601.226 761.864C589.433 765.684 577.476 768.844 565.444 771.836C543.206 778.364 519.823 781.645 496.773 778.414C471.894 775.746 443.765 767.285 438.323 739.336C438.105 738.164 437.944 736.996 437.862 735.836C437.843 735.836 437.843 735.824 437.843 735.824C437.796 735.805 437.765 735.774 437.714 735.746C437.706 735.703 437.683 735.703 437.655 735.676H437.636C437.636 735.676 437.636 735.657 437.612 735.657C437.523 735.657 437.405 735.645 437.296 735.625C437.234 735.625 437.155 735.625 437.085 735.645H437.073C437.034 735.656 437.023 735.657 437.003 735.657C436.976 735.676 436.956 735.676 436.944 735.696H436.925C436.925 735.703 436.925 735.703 436.925 735.703C436.444 741.063 436.234 746.555 437.765 751.746C440.843 759.414 445.316 767.254 451.995 772.305C467.515 781.985 486.284 785.625 504.456 785.645C505.253 785.645 506.066 785.625 506.874 785.614C516.194 785.504 525.605 785.356 534.944 784.664C527.136 787.035 519.683 790.614 512.714 794.813C497.226 803.746 483.894 817.016 478.085 834.223C476.296 839.184 474.476 844.324 474.194 849.625C474.003 850.606 473.894 851.594 473.956 852.606C473.976 852.793 474.144 852.965 474.355 852.946C474.355 852.914 474.374 852.883 474.374 852.844C474.476 852.914 474.566 852.926 474.683 852.914C474.745 851.996 474.843 851.074 474.956 850.156C479.585 831.086 496.726 809.094 514.355 799.973C509.503 805.555 506.612 813.305 507.323 820.676C508.425 830.856 517.085 839.746 527.683 839.133C532.843 839.063 539.155 837.793 541.726 832.774C542.433 830.926 543.073 828.844 542.984 826.836C542.433 823.774 540.284 820.594 537.234 819.625C533.593 818.516 529.655 819.676 526.784 822.063C526.784 822.063 526.765 822.074 526.765 822.094C526.734 822.094 526.706 822.125 526.663 822.145C526.476 822.246 526.425 822.516 526.534 822.696C526.683 822.914 526.944 822.934 527.155 822.805C528.374 822.145 529.816 821.703 531.175 821.946C535.495 822.563 537.304 826.824 533.784 829.746C530.362 832.223 525.554 832.594 521.523 831.676C519.163 831.043 517.605 829.086 516.214 827.223C510.804 820.383 512.386 810.543 517.023 803.715C519.456 800.004 523.136 797.446 526.835 795.106C533.206 790.875 540.046 787.344 547.226 784.723C549.015 784.043 550.956 783.254 552.796 782.703C552.843 782.645 552.886 782.586 552.925 782.516C556.905 781.824 560.874 780.965 564.816 779.883C579.394 775.813 593.835 771.223 608.245 766.524C623.655 778.285 642.503 791.793 658.624 791.094C673.386 791.004 688.484 785.754 697.585 773.625C700.136 770.516 702.636 767.364 704.503 763.793C705.624 762.293 706.464 760.606 707.265 758.946C707.304 758.614 706.964 758.426 706.683 758.543C706.464 758.473 706.206 758.633 706.206 758.895C705.495 760.344 704.765 761.746 703.995 763.106C701.124 767.074 697.112 770.176 693.163 773.094C682.773 780.965 669.773 786.133 656.605 785.426C650.683 785.246 645.296 782.535 640.085 779.985C634.835 777.305 629.706 774.414 624.894 771.074C621.753 768.844 618.753 766.465 615.734 764.094C617.523 763.496 619.335 762.914 621.136 762.313C642.183 754.364 663.444 746.485 685.515 741.953C691.636 740.543 697.503 740.254 703.206 740.793C696.245 748.145 689.003 755.215 680.273 760.496C674.066 764.156 668.015 768.606 660.886 770.254C650.605 772.543 651.894 764.895 657.636 759.656C663.886 753.746 672.444 750.555 681.046 751.684C681.046 751.684 681.046 751.684 681.066 751.684C681.066 751.684 681.066 751.684 681.085 751.684C681.226 751.715 681.386 751.664 681.484 751.524C681.546 751.395 681.534 751.266 681.456 751.164C681.456 750.985 681.323 750.824 681.144 750.774C680.273 750.535 679.413 750.324 678.515 750.184C667.253 748.504 654.444 753.504 648.343 763.313C645.136 770.203 649.874 775.446 656.655 775.446C657.046 775.446 657.425 775.434 657.835 775.406C672.773 774.606 685.112 764.383 695.796 754.844C700.706 750.614 705.546 746.324 710.183 741.844C719.034 743.645 727.585 747.176 736.265 751.184C736.343 751.196 736.425 751.246 736.503 751.274C737.214 751.856 737.925 752.453 738.612 753.063C738.683 753.196 738.796 753.246 738.905 753.246C739.194 753.246 739.495 752.946 739.316 752.645C738.874 752.086 738.273 751.645 737.745 751.215Z" fill="#1B4332"/>
<path d="M454.706 803.836C455.655 803.074 456.573 802.235 457.495 801.375C456.624 802.266 455.706 803.106 454.706 803.836ZM483.362 789.793C481.995 788.985 480.085 789.535 478.534 789.426C474.823 789.645 470.925 790.164 467.593 791.906C465.585 792.906 463.933 794.344 462.405 795.945C460.413 797.524 458.593 799.426 456.655 800.973C461.886 792.535 471.503 785.215 481.843 787.774C482.284 788.004 482.573 787.504 482.394 787.215C482.495 786.985 482.413 786.676 482.054 786.594C478.374 784.723 473.983 784.176 469.925 784.695C459.284 786.274 453.362 796.274 446.304 803.246C444.765 804.945 442.636 805.445 440.796 803.914C440.335 803.504 439.925 803.043 439.663 802.504C439.605 802.203 439.456 801.813 439.073 801.926C438.655 802.106 438.796 802.543 438.956 802.895C438.413 809.285 444.944 813.735 451.015 813.016C464.483 811.945 469.144 796.406 480.323 791.274C481.112 790.985 481.976 790.774 482.835 790.774C483.023 790.774 483.206 790.594 483.206 790.406C483.425 790.305 483.573 790.016 483.362 789.793Z" fill="#1B4332"/>
<path d="M242.734 740.516C251.253 734.723 263.003 730.836 273.085 734.344C280.816 738.473 288.995 744.574 289.843 753.965C291.675 766.516 277.105 778.785 265.085 773.895C262.956 773.004 260.675 771.793 259.476 769.766C259.273 769.613 259.085 769.465 258.886 769.305C258.675 769.074 258.804 768.723 259.105 768.645C259.105 768.645 259.105 768.645 259.112 768.656C259.136 768.574 259.183 768.504 259.253 768.453C259.566 768.184 260.046 768.524 259.905 768.895C259.956 768.985 260.023 769.086 260.085 769.176C260.444 769.445 260.816 769.746 261.226 769.926C263.734 771.363 266.655 771.985 269.534 771.453C279.773 770.676 287.753 757.395 281.054 748.645C267.956 730.086 246.546 741.844 236.585 757.106C229.386 768.785 232.163 784.985 241.956 794.356C250.374 803.176 260.995 803.824 272.234 800.824C284.624 798.184 294.144 789.313 302.624 780.406C309.253 773.594 316.046 766.953 323.105 760.586C329.093 754.555 335.964 749.223 343.823 745.906C350.265 742.633 358.355 740.836 365.476 742.516C366.155 742.613 366.835 742.754 367.503 742.926C377.862 745.836 380.773 756.934 379.503 766.563C378.464 776.465 372.784 788.703 361.265 788.426C353.206 788.246 344.675 781.473 343.706 773.313C343.706 773.235 343.714 773.156 343.726 773.086C343.694 772.766 343.683 772.434 343.683 772.106C343.862 768.246 345.566 764.106 348.476 761.445C348.484 761.434 348.495 761.426 348.515 761.414C349.296 760.613 350.194 759.934 351.206 759.406C359.925 755.445 368.726 764.324 362.093 772.195C360.105 774.086 357.343 775.406 354.554 775.293C354.636 775.613 354.745 775.934 354.913 776.223C359.214 785.453 369.956 782.563 373.226 774.164C378.386 764.524 375.644 746.426 361.804 747.563C356.253 747.516 350.913 749.774 346.386 752.844C337.253 758.164 330.066 766.016 322.734 773.516C318.175 778.496 313.444 783.383 308.605 788.125C305.316 791.824 301.503 795.246 297.234 797.836C287.296 804.836 275.566 809.586 263.464 810.145C252.113 810.344 240.593 805.313 232.905 796.996C223.694 787.344 221.855 776.805 226.343 764.324C229.655 755.274 234.765 746.285 242.734 740.516Z" fill="#1B4332"/>
<path d="M303.335 720.793C314.706 698.774 334.694 687.305 359.534 690.883C363.085 691.524 366.483 692.965 369.226 695.356C369.534 695.625 369.843 695.883 370.124 696.184C370.194 696.203 370.265 696.234 370.323 696.254C370.523 696.344 370.605 696.606 370.523 696.793C370.483 697.094 370.054 697.313 369.823 697.035C369.765 696.973 369.706 696.914 369.655 696.856C369.093 696.633 368.495 696.465 367.933 696.324C358.456 694.625 350.565 702.985 345.753 710.203C333.886 725.946 331.694 753.094 309.066 757.395C305.726 758.074 302.245 757.906 298.933 757.133C298.433 757.024 297.323 756.774 297.816 756.094C297.976 756.133 298.136 756.184 298.296 756.215C298.394 756.055 298.593 756.043 298.784 755.996C299.265 755.836 299.726 755.594 300.206 755.305C307.495 750.235 309.862 741.133 313.566 733.524C316.995 726.356 321.206 719.356 327.214 714.055C322.112 717.746 318.105 722.586 315.023 728.055C311.573 733.563 307.726 738.793 303.913 744.055C301.683 747.035 299.413 750.266 296.073 752.055C295.995 752.184 295.843 752.223 295.706 752.203H295.694C295.554 752.203 295.413 752.133 295.343 752.004C295.323 751.965 295.304 751.945 295.304 751.906C295.296 751.883 295.284 751.863 295.273 751.844C293.054 746.895 295.886 737.734 298.944 731.246C300.273 727.703 301.773 724.234 303.335 720.793Z" fill="#1B4332"/>
<path d="M470.163 647.254C470.194 647.266 470.226 647.274 470.265 647.285C470.362 647.274 470.476 647.274 470.585 647.266C470.995 647.305 471.034 647.813 470.773 648.004C470.753 648.063 470.714 648.125 470.655 648.176C470.554 648.145 470.456 648.113 470.343 648.086C468.405 648.195 466.355 649.094 465.015 650.504C461.273 655.016 462.034 661.543 465.253 666.125C469.003 671.156 475.753 672.055 481.206 674.375C492.054 678.004 501.753 689.836 497.476 701.543C497.515 701.684 497.503 701.813 497.386 701.934C496.644 702.465 496.503 701.074 496.054 700.695C493.194 696.774 488.323 695.086 484.206 692.813C474.726 687.824 463.003 683.785 458.046 673.633C458.515 676.266 460.183 678.676 461.483 680.985C464.655 686.836 470.464 690.446 476.073 693.723C480.983 696.555 485.933 699.344 490.706 702.434C491.034 702.543 491.065 703.016 490.773 703.176C490.753 703.305 490.675 703.406 490.523 703.465C489.444 703.774 488.362 704.156 487.233 704.223C482.804 704.524 478.585 703.196 474.323 702.203C467.655 700.914 461.815 697.016 457.214 692.125C446.284 680.313 440.663 656.156 457.374 646.895C461.483 645.516 466.105 645.805 470.163 647.254Z" fill="#1B4332"/>
</g>
<defs>
<clipPath id="clip0_4_122">
<rect width="1052" height="207" fill="white" transform="translate(224 646)"/>
</clipPath>
</defs>
</svg>
